HIERARCHY
ROOT Hips
{
	OFFSET 0.000000 0.000000 0.000000
	CHANNELS 6 Xposition Yposition Zposition Zrotation Yrotation Xrotation 
	JOINT LowerBack
	{
		OFFSET 0.000000 0.000000 0.000000
		CHANNELS 3 Zrotation Yrotation Xrotation
		JOINT Spine
		{
			OFFSET 0.028270 2.035590 -0.193380
			CHANNELS 3 Zrotation Yrotation Xrotation
			JOINT Spine1
			{
				OFFSET 0.056720 2.048850 -0.042750
				CHANNELS 3 Zrotation Yrotation Xrotation
				JOINT Neck
				{
					OFFSET 0.000000 0.000000 0.000000
					CHANNELS 3 Zrotation Yrotation Xrotation
					JOINT Neck1
					{
						OFFSET -0.054170 1.746240 0.172020
						CHANNELS 3 Zrotation Yrotation Xrotation
						JOINT Head
						{
							OFFSET 0.104070 1.761360 -0.123970
							CHANNELS 3 Zrotation Yrotation Xrotation
							End Site
							{
								OFFSET 0.000000 0.000000 0.000000
							}
						}
					}
				}
				JOINT LeftShoulder
				{
					OFFSET 0.000000 0.000000 0.000000
					CHANNELS 3 Zrotation Yrotation Xrotation
					JOINT LeftArm
					{
						OFFSET 3.362410 1.200890 -0.311210
						CHANNELS 3 Zrotation Yrotation Xrotation
						JOINT LeftForeArm
						{
							OFFSET 4.983000 -0.000000 -0.000000
							CHANNELS 3 Zrotation Yrotation Xrotation
							JOINT LeftHand
							{
								OFFSET 3.483560 -0.000000 -0.000000
								CHANNELS 3 Zrotation Yrotation Xrotation
								JOINT LeftFingerBase
								{
									OFFSET 0.000000 0.000000 0.000000
									CHANNELS 3 Zrotation Yrotation Xrotation
									JOINT LeftHandIndex1
									{
										OFFSET 0.715260 -0.000000 -0.000000
										CHANNELS 3 Zrotation Yrotation Xrotation
										End Site
										{
											OFFSET 0.000000 0.000000 0.000000
										}
									}
								}
								JOINT LThumb
								{
									OFFSET 0.000000 0.000000 0.000000
									CHANNELS 3 Zrotation Yrotation Xrotation
									End Site
									{
										OFFSET 0.000000 0.000000 0.000000
									}
								}
							}
						}
					}
				}
				JOINT RightShoulder
				{
					OFFSET 0.000000 0.000000 0.000000
					CHANNELS 3 Zrotation Yrotation Xrotation
					JOINT RightArm
					{
						OFFSET -3.136600 1.374050 -0.404650
						CHANNELS 3 Zrotation Yrotation Xrotation
						JOINT RightForeArm
						{
							OFFSET -5.241900 -0.000000 -0.000000
							CHANNELS 3 Zrotation Yrotation Xrotation
							JOINT RightHand
							{
								OFFSET -3.444170 -0.000000 -0.000000
								CHANNELS 3 Zrotation Yrotation Xrotation
								JOINT RightFingerBase
								{
									OFFSET 0.000000 0.000000 0.000000
									CHANNELS 3 Zrotation Yrotation Xrotation
									JOINT RightHandIndex1
									{
										OFFSET -0.622530 -0.000000 -0.000000
										CHANNELS 3 Zrotation Yrotation Xrotation
										End Site
										{
											OFFSET 0.000000 0.000000 0.000000
										}
									}
								}
								JOINT RThumb
								{
									OFFSET 0.000000 0.000000 0.000000
									CHANNELS 3 Zrotation Yrotation Xrotation
									End Site
									{
										OFFSET 0.000000 0.000000 0.000000
									}
								}
							}
						}
					}
				}
			}
		}
	}
}
}
MOTION
Frames: 18
Frame Time: 0.008333
-10.897316 17.049139 -0.534289 91.356620 89.027405 103.967473 0.383504 -7.164062 -4.558040 0.010025 -7.346618 -3.571230 -6.082564 -7.407937 0.181917 12.858001 -19.474578 -9.308262 -3.547756 -0.260856 -0.347273 0.000000 0.000000 0.000000 7.918857 0.637548 -1.147746 -67.868879 3.312841 5.227627 179.431155 -88.708424 179.896604 16.082297 -4.500803 -0.708546 -0.232995 0.467737 0.000000 0.000000 0.000000 0.000000 0.000000 0.000000 0.000000 17.938039 -17.622898 -0.436339 58.601400 0.624230 0.006565 0.371547 80.020428 -0.011276 -6.683749 5.896133 -0.367380 0.161100 -0.268112 0.000000 0.000000 0.000000 0.000000 0.000000 0.000000 0.000000 
-10.684550 17.057529 -0.518006 79.759876 89.222783 92.394085 0.573990 -7.066021 -4.642651 0.041822 -7.269660 -3.592695 -6.115661 -7.332708 0.171550 12.889315 -19.113003 -9.242582 -3.555590 -0.262377 -0.330490 0.000000 0.000000 0.000000 7.483653 0.965443 -1.043052 -68.559641 3.766246 5.453801 179.425403 -89.948981 179.900055 16.110150 -4.570865 -0.718116 -0.232146 0.454801 0.000000 0.000000 0.000000 0.000000 0.000000 0.000000 0.000000 17.989091 -17.181379 -0.480425 58.596640 1.399496 0.322812 0.362422 80.093549 -0.011912 -6.637008 5.902412 -0.365394 0.158605 -0.273211 0.000000 0.000000 0.000000 0.000000 0.000000 0.000000 0.000000 
-10.474100 17.065900 -0.502285 64.509274 89.233411 77.186831 0.639493 -6.963333 -4.728028 0.043956 -7.177252 -3.614183 -6.147788 -7.242130 0.166215 12.928029 -18.730178 -9.181662 -3.565534 -0.263938 -0.315266 0.000000 0.000000 0.000000 7.065609 1.313652 -0.933686 -69.267322 4.233629 5.647582 -0.586722 -88.699699 -0.096421 16.160863 -4.640942 -0.728503 -0.231143 0.440854 -0.000000 0.000000 0.000000 0.000000 0.000000 0.000000 0.000000 18.070087 -16.713850 -0.520367 58.619053 2.239926 0.713948 0.357490 80.093846 -0.012372 -6.536679 5.895083 -0.359609 0.155408 -0.278104 0.000000 0.000000 0.000000 0.000000 0.000000 0.000000 0.000000 
-10.266385 17.074165 -0.486537 45.970543 88.888906 58.705242 0.520339 -6.804064 -4.809602 -0.004768 -7.011494 -3.636304 -6.182505 -7.077597 0.164971 12.980759 -18.329334 -9.127207 -3.577547 -0.265471 -0.302097 0.000000 0.000000 0.000000 6.672634 1.710664 -0.824819 -69.971769 4.721399 5.799304 -0.604821 -87.260555 -0.092774 16.230011 -4.703830 -0.738519 -0.229522 0.425583 0.000000 0.000000 0.000000 0.000000 0.000000 0.000000 0.000000 18.188464 -16.194852 -0.547878 58.667546 3.145966 1.181643 0.357225 80.032598 -0.012637 -6.391402 5.873061 -0.350620 0.152072 -0.282981 0.000000 0.000000 0.000000 0.000000 0.000000 0.000000 0.000000 
-10.061537 17.082216 -0.470534 26.982830 88.077692 39.787320 0.387495 -6.497631 -4.887131 -0.079227 -6.697415 -3.662303 -6.232662 -6.763364 0.162648 13.047521 -17.908589 -9.078877 -3.591270 -0.266947 -0.290754 0.000000 0.000000 0.000000 6.300061 2.195592 -0.722203 -70.662317 5.237260 5.900007 -0.628736 -85.758629 -0.088994 16.312775 -4.755411 -0.747369 -0.226503 0.408797 0.000000 0.000000 0.000000 0.000000 0.000000 0.000000 0.000000 18.335088 -15.580073 -0.552735 58.738136 4.110817 1.721909 0.362097 79.920059 -0.012695 -6.210564 5.838945 -0.339121 0.149209 -0.288150 0.000000 0.000000 0.000000 0.000000 0.000000 0.000000 0.000000 
-9.859543 17.090068 -0.453845 11.085550 87.050767 23.968361 0.558827 -6.071549 -4.944624 -0.106491 -6.292299 -3.687558 -6.308103 -6.356737 0.155647 13.126250 -17.469927 -9.035401 -3.608159 -0.268564 -0.281018 0.000000 0.000000 0.000000 5.942024 2.733997 -0.622105 -71.334336 5.768880 5.957162 -0.656602 -84.210328 -0.085164 16.402626 -4.792133 -0.754237 -0.222112 0.391042 -0.000000 0.000000 0.000000 0.000000 0.000000 0.000000 0.000000 18.504187 -14.892940 -0.542489 58.817407 5.108034 2.316052 0.369892 79.775784 -0.012625 -6.010911 5.795879 -0.326222 0.146570 -0.293366 0.000000 0.000000 0.000000 0.000000 0.000000 0.000000 0.000000 
-9.660130 17.097740 -0.436320 -0.831967 86.194356 12.140298 1.016411 -5.667752 -4.976430 -0.071852 -5.936334 -3.706368 -6.396633 -5.998587 0.146413 13.207477 -17.011641 -8.992473 -3.628731 -0.270490 -0.271867 0.000000 0.000000 0.000000 5.594538 3.248798 -0.513807 -71.975462 6.297156 5.995371 -0.686459 -82.629756 -0.081322 16.492312 -4.814021 -0.758999 -0.217399 0.373207 -0.000000 0.000000 0.000000 0.000000 0.000000 0.000000 0.000000 18.684735 -14.200865 -0.536290 58.908277 6.092460 2.934076 0.377010 79.622029 -0.012540 -5.807352 5.750974 -0.313129 0.143336 -0.298218 0.000000 0.000000 0.000000 0.000000 0.000000 0.000000 0.000000 
-9.463120 17.105364 -0.417433 -9.168920 85.603309 3.901188 1.504854 -5.348429 -4.990837 -0.021369 -5.668011 -3.718413 -6.485593 -5.727971 0.138080 13.293054 -16.536109 -8.948282 -3.653199 -0.272767 -0.262856 0.000000 0.000000 0.000000 5.263832 3.718325 -0.395259 -72.561000 6.821078 6.032573 -0.717028 -81.046481 -0.077453 16.574969 -4.820344 -0.761047 -0.212928 0.355530 -0.000000 0.000000 0.000000 0.000000 0.000000 0.000000 0.000000 18.884252 -13.529819 -0.539981 59.013924 7.043071 3.568803 0.382002 79.476008 -0.012528 -5.621593 5.707546 -0.301145 0.139600 -0.302697 0.000000 0.000000 0.000000 0.000000 0.000000 0.000000 0.000000 
-9.268091 17.113116 -0.397067 -15.083056 85.198228 -1.900946 1.912402 -5.089808 -5.005975 0.018880 -5.453621 -3.728465 -6.571876 -5.511567 0.130726 13.380237 -16.044083 -8.901500 -3.680230 -0.275296 -0.253425 0.000000 0.000000 0.000000 4.947318 4.162786 -0.270527 -73.074012 7.348807 6.078481 -0.747990 -79.492553 -0.073531 16.645344 -4.814174 -0.760685 -0.208650 0.338039 0.000000 0.000000 0.000000 0.000000 0.000000 0.000000 0.000000 19.093960 -12.865091 -0.549967 59.140584 7.948079 4.217965 0.384897 79.346489 -0.012632 -5.467869 5.670799 -0.291258 0.135821 -0.307099 0.000000 0.000000 0.000000 0.000000 0.000000 0.000000 0.000000 
-9.074658 17.121102 -0.375123 -19.387329 84.920662 -6.072928 2.220383 -4.866020 -5.034556 0.042088 -5.266053 -3.740011 -6.655642 -5.322427 0.123724 13.466218 -15.539263 -8.851692 -3.708686 -0.277996 -0.243289 0.000000 0.000000 0.000000 4.642363 4.597744 -0.143670 -73.504628 7.887176 6.141456 -0.778875 -77.996402 -0.069562 16.698546 -4.798530 -0.758213 -0.204449 0.320816 0.000000 0.000000 0.000000 0.000000 0.000000 0.000000 0.000000 19.304775 -12.196781 -0.563381 59.290563 8.800361 4.880949 0.385809 79.240271 -0.012883 -5.356906 5.646007 -0.284367 0.132374 -0.311659 0.000000 0.000000 0.000000 0.000000 0.000000 0.000000 0.000000 
-8.882395 17.129514 -0.351616 -22.638312 84.741878 -9.165983 2.439794 -4.661304 -5.084773 0.048974 -5.090933 -3.755216 -6.737241 -5.146207 0.116521 13.547881 -15.025294 -8.798426 -3.737809 -0.280823 -0.232206 0.000000 0.000000 0.000000 4.347586 5.032447 -0.017714 -73.848456 8.439975 6.229526 -0.809122 -76.582254 -0.065569 16.731291 -4.776281 -0.753832 -0.200310 0.303992 0.000000 0.000000 0.000000 0.000000 0.000000 0.000000 0.000000 19.508740 -11.520961 -0.579152 59.462883 9.592734 5.555788 0.384591 79.166374 -0.013309 -5.294677 5.635327 -0.280671 0.129480 -0.316516 0.000000 0.000000 0.000000 0.000000 0.000000 0.000000 0.000000 
-8.690938 17.138457 -0.326712 -25.258933 84.646117 -11.597958 2.591822 -4.466280 -5.163887 0.043441 -4.921126 -3.775736 -6.815716 -4.975742 0.109205 13.619560 -14.511135 -8.742293 -3.765921 -0.283653 -0.220195 0.000000 0.000000 0.000000 4.059707 5.469296 0.104542 -74.104743 9.011718 6.346138 -0.838156 -75.271416 -0.061582 16.740454 -4.751177 -0.747939 -0.196250 0.287720 0.000000 0.000000 0.000000 0.000000 0.000000 0.000000 0.000000 19.692230 -10.843203 -0.596628 59.660987 10.326748 6.242471 0.381487 79.126162 -0.013898 -5.277722 5.642739 -0.280267 0.127202 -0.321792 0.000000 0.000000 0.000000 0.000000 0.000000 0.000000 0.000000 
-8.499979 17.147996 -0.300617 -27.448960 84.621471 -13.568303 2.687145 -4.274993 -5.273618 0.027490 -4.751690 -3.801999 -6.890092 -4.806028 0.101717 13.677562 -14.005242 -8.684027 -3.791832 -0.286395 -0.207391 0.000000 0.000000 0.000000 3.778401 5.908322 0.220804 -74.275787 9.605949 6.491296 -0.865238 -74.081908 -0.057628 16.723985 -4.724715 -0.740834 -0.192320 0.272103 0.000000 0.000000 0.000000 0.000000 0.000000 0.000000 0.000000 19.846707 -10.170134 -0.615068 59.885057 11.006754 6.941568 0.376754 79.122340 -0.014627 -5.298349 5.668587 -0.282756 0.125533 -0.327543 0.000000 0.000000 0.000000 0.000000 0.000000 0.000000 0.000000 
-8.309391 17.158248 -0.273484 -29.249257 84.654612 -15.123893 2.728172 -4.082122 -5.409452 0.001295 -4.577194 -3.833354 -6.959734 -4.631554 0.093311 13.719985 -13.510464 -8.623629 -3.814838 -0.288986 -0.193829 0.000000 0.000000 0.000000 3.507438 6.351817 0.329739 -74.366884 10.220948 6.664167 -0.889665 -73.024163 -0.053734 16.681306 -4.697039 -0.732617 -0.188592 0.257203 0.000000 0.000000 0.000000 0.000000 0.000000 0.000000 0.000000 19.967157 -9.502234 -0.633840 60.133309 11.632353 7.648734 0.370443 79.162153 -0.015454 -5.343500 5.711020 -0.287339 0.124334 -0.333813 0.000000 0.000000 0.000000 0.000000 0.000000 0.000000 0.000000 
-8.119040 17.169141 -0.245622 -30.654885 84.728213 -16.267594 2.719369 -3.882393 -5.564907 -0.034469 -4.392226 -3.868775 -7.023552 -4.446815 0.083492 13.743741 -13.031680 -8.561824 -3.833802 -0.291319 -0.179742 0.000000 0.000000 0.000000 3.248777 6.801101 0.430198 -74.384803 10.856084 6.859061 -0.910791 -72.106202 -0.049925 16.612658 -4.668606 -0.723188 -0.185129 0.243059 0.000000 0.000000 0.000000 0.000000 0.000000 0.000000 0.000000 20.045999 -8.842259 -0.651950 60.406210 12.209951 8.360730 0.362902 79.247755 -0.016310 -5.394691 5.768104 -0.293116 0.123388 -0.340636 0.000000 0.000000 0.000000 0.000000 0.000000 0.000000 0.000000 
-7.928869 17.180618 -0.217309 -31.578400 84.823662 -16.921403 2.663287 -3.670195 -5.731730 -0.079512 -4.190701 -3.906876 -7.080183 -4.245618 0.071920 13.746045 -12.580116 -8.500367 -3.847412 -0.293264 -0.165627 0.000000 0.000000 0.000000 3.001241 7.251939 0.520524 -74.335623 11.515584 7.064527 -0.927717 -71.338911 -0.046224 16.518411 -4.635836 -0.712147 -0.181958 0.229651 0.000000 0.000000 0.000000 0.000000 0.000000 0.000000 0.000000 20.076799 -8.199992 -0.667225 60.703543 12.756653 9.080095 0.354902 79.375782 -0.017112 -5.433595 5.838617 -0.298888 0.122531 -0.348031 0.000000 0.000000 0.000000 0.000000 0.000000 0.000000 0.000000 
-7.738873 17.192502 -0.188757 -31.783638 84.919260 -16.862856 2.553941 -3.440586 -5.897821 -0.135380 -3.966182 -3.945772 -7.128759 -4.021513 0.057423 13.725820 -12.157321 -8.439631 -3.855010 -0.294744 -0.151688 0.000000 0.000000 0.000000 2.766929 7.705791 0.600408 -74.226813 12.198729 7.270305 -0.939831 -70.725222 -0.042649 16.401227 -4.597655 -0.699596 -0.179119 0.216956 0.000000 0.000000 0.000000 0.000000 0.000000 0.000000 0.000000 20.056311 -7.574378 -0.678292 61.024079 13.280821 9.803242 0.346776 79.547575 -0.017780 -5.441478 5.918452 -0.303556 0.121499 -0.356002 0.000000 0.000000 0.000000 0.000000 0.000000 0.000000 0.000000 
-7.549037 17.204546 -0.160247 -31.034219 84.994825 -15.867802 2.386250 -3.189681 -6.051839 -0.203266 -3.713395 -3.983691 -7.168430 -3.769233 0.039246 13.682235 -11.765469 -8.380455 -3.855999 -0.295683 -0.138237 0.000000 0.000000 0.000000 2.547259 8.164123 0.669681 -74.065414 12.904606 7.466859 -0.946617 -70.266214 -0.039217 16.264461 -4.550215 -0.685036 -0.176654 0.204919 0.000000 0.000000 0.000000 0.000000 0.000000 0.000000 0.000000 19.982134 -6.965585 -0.683980 61.364810 13.791730 10.527143 0.338792 79.763818 -0.018243 -5.403764 6.004007 -0.305921 0.120073 -0.364545 0.000000 0.000000 0.000000 0.000000 0.000000 0.000000 0.000000 
